<svg width="1600" height="900" viewBox="0 0 1600 900" fill="none" xmlns="http://www.w3.org/2000/svg">
  <rect width="1600" height="900" fill="#262626"/>
  <rect x="56" y="67" width="660" height="720" rx="18" fill="#FFFFFF"/>
  <path d="M56 85C56 75.059 64.059 67 74 67H698C707.941 67 716 75.059 716 85V117H56V85Z" fill="#2D2A2A"/>
  <rect x="76" y="82" width="24" height="24" rx="4" fill="#FFFFFF"/>
  <text x="116" y="101" fill="#FFFFFF" font-size="16" font-family="Arial, sans-serif" font-weight="700">Facilitea - Plugin Dise&#241;o</text>
  <path d="M684 82L700 98M700 82L684 98" stroke="#FFFFFF" stroke-width="2" stroke-linecap="round"/>
  <text x="386" y="190" fill="#004B5B" font-size="50" text-anchor="middle" font-family="Arial, sans-serif" font-weight="800">Textos B2</text>
  <text x="386" y="245" fill="#676767" font-size="16" text-anchor="middle" font-family="Arial, sans-serif">Selecciona los elementos que quieres incluir y pulsa Seleccionar.</text>
  <rect x="285" y="310" width="202" height="66" rx="18" fill="#FFFFFF" stroke="#004B5B" stroke-width="2"/>
  <text x="386" y="351" fill="#004B5B" font-size="18" text-anchor="middle" font-family="Arial, sans-serif" font-weight="700">Seleccionar elementos</text>
  <rect x="190" y="430" width="392" height="76" rx="14" fill="#F1F0EC" stroke="#D7D7D2" stroke-width="2"/>
  <rect x="280" y="446" width="210" height="46" rx="23" fill="#FFFFFF" stroke="#D9DDE2"/>
  <text x="316" y="476" fill="#004B5B" font-size="18" font-family="Arial, sans-serif">#</text>
  <text x="340" y="476" fill="#404040" font-size="18" font-family="Arial, sans-serif">COM_Mi cuenta</text>
  <text x="458" y="476" fill="#6B6B6B" font-size="18" font-family="Arial, sans-serif">×</text>
  <text x="386" y="548" fill="#676767" font-size="16" text-anchor="middle" font-family="Arial, sans-serif">N&#250;mero de elementos seleccionados: 1</text>
  <rect x="56" y="690" width="660" height="97" rx="0" fill="#F5F4F0"/>
  <rect x="82" y="712" width="608" height="58" rx="14" fill="#004B5B"/>
  <text x="386" y="749" fill="#FFFFFF" font-size="18" text-anchor="middle" font-family="Arial, sans-serif" font-weight="700">Buscar textos</text>
  <text x="810" y="144" fill="#E2E2E2" font-size="15" font-family="Arial, sans-serif">Frame 1739332826</text>
  <rect x="810" y="158" width="360" height="34" rx="8" stroke="#FFFFFF" stroke-width="2"/>
  <text x="826" y="181" fill="#FFFFFF" font-size="13" font-family="Courier New, monospace">MI CUENTA</text>
  <rect x="810" y="210" width="690" height="34" rx="8" stroke="#FFFFFF" stroke-width="2"/>
  <text x="826" y="233" fill="#FFFFFF" font-size="13" font-family="Courier New, monospace">PANTALLA PRINCIPAL</text>
  <rect x="1120" y="292" width="620" height="426" fill="#FFFFFF"/>
  <rect x="1120" y="292" width="620" height="30" fill="#0A4A59"/>
  <rect x="1120" y="322" width="110" height="396" fill="#F8F8F6"/>
  <rect x="1254" y="356" width="450" height="300" fill="#FBFBF9" stroke="#E2E2DE"/>
  <rect x="814" y="277" width="118" height="220" rx="8" fill="#F6B7D8"/>
  <rect x="814" y="512" width="118" height="144" rx="8" fill="#F6DE85"/>
  <rect x="1332" y="698" width="118" height="30" rx="10" fill="#159BFE"/>
  <text x="1389" y="719" fill="#FFFFFF" font-size="12" text-anchor="middle" font-family="Arial, sans-serif" font-weight="700">1440 × 1845 Hug</text>
</svg>
